<svg width="22px" height="15px" viewBox="0 0 22 15" version="1.1" xmlns="http://www.w3.org/2000/svg" xmlns:xlink="http://www.w3.org/1999/xlink">
    <!-- Generator: Sketch 47.1 (45422) - http://www.bohemiancoding.com/sketch -->
    <desc>Created with Sketch.</desc>
    <defs></defs>
    <g id="Symbols" stroke="none" stroke-width="1" fill="none" fill-rule="evenodd">
        <g id="Nav-bar-fade" transform="translate(-8.000000, -7.000000)">
            <g id="status-bar">
                <g transform="translate(0.000000, -8.000000)" id="logo">
                    <g transform="translate(8.000000, 16.000000)">
                        <polygon id="E" fill="#000000" points="6.45244216 10.8183594 6.25192802 12 0 12 1.8251928 1 8 1 7.79948586 2.18164062 2.87917738 2.18164062 2.25706941 5.8984375 6.66838046 5.8984375 6.47300771 7.08007812 2.06683805 7.08007812 1.44473008 10.8183594"></polygon>
                        <polygon id="N" fill="#000000" points="20 1 18.1203801 12 16.9271383 12 12.8880676 3.38476562 12.7771911 3.37939453 11.2777191 12 10 12 11.87434 1 13.0728617 1 17.1224921 9.65820312 17.2386484 9.66357422 18.7381204 1"></polygon>
                        <circle id="Oval-Copy-3" stroke="#000000" stroke-width="0.5" cx="7.5" cy="1.5" r="1.5"></circle>
                        <circle id="Oval-Copy-5" stroke="#000000" stroke-width="0.5" cx="6.5" cy="11.5" r="1.5"></circle>
                        <circle id="Oval-Copy" stroke="#000000" stroke-width="0.5" cx="10.5" cy="11.5" r="1.5"></circle>
                        <circle id="Oval-Copy-2" stroke="#000000" stroke-width="0.5" cx="19.5" cy="1.5" r="1.5"></circle>
                    </g>
                </g>
            </g>
        </g>
    </g>
</svg>