<svg width="16px" height="16px" viewBox="0 0 16 16" version="1.1" xmlns="http://www.w3.org/2000/svg" xmlns:xlink="http://www.w3.org/1999/xlink">
    <!-- Generator: Sketch 47.1 (45422) - http://www.bohemiancoding.com/sketch -->
    <desc>Created with Sketch.</desc>
    <defs></defs>
    <g id="Symbols" stroke="none" stroke-width="1" fill="none" fill-rule="evenodd">
        <g id="Nav-bar-fade" transform="translate(-1414.000000, -5.000000)" fill-rule="nonzero" fill="#000000">
            <g id="status-bar">
                <g transform="translate(0.000000, -8.000000)" id="login">
                    <g transform="translate(1414.000000, 13.000000)">
                        <path d="M8,0 C3.582,0 0,3.582 0,8 C0,12.418 3.582,16 8,16 C12.418,16 16,12.418 16,8 C16,3.582 12.418,0 8,0 Z M13.1686667,12.2033333 C12.9946667,11.8126667 12.6426667,11.5426667 11.9213333,11.376 C10.3926667,11.0233333 8.96933333,10.714 9.65933333,9.41266667 C11.756,5.45133333 10.2146667,3.33333333 8,3.33333333 C5.74133333,3.33333333 4.23733333,5.53266667 6.34066667,9.41266667 C7.05133333,10.722 5.57533333,11.0306667 4.07866667,11.376 C3.356,11.5426667 3.00666667,11.8146667 2.834,12.2066667 C1.89733333,11.058 1.33333333,9.594 1.33333333,8 C1.33333333,4.324 4.324,1.33333333 8,1.33333333 C11.676,1.33333333 14.6666667,4.324 14.6666667,8 C14.6666667,9.59266667 14.1033333,11.0553333 13.1686667,12.2033333 Z" id="Shape"></path>
                    </g>
                </g>
            </g>
        </g>
    </g>
</svg>