
<svg width="86px" height="55px" viewBox="0 0 86 55" version="1.1" xmlns="http://www.w3.org/2000/svg" xmlns:xlink="http://www.w3.org/1999/xlink">
    <!-- Generator: Sketch 49.3 (51167) - http://www.bohemiancoding.com/sketch -->
    <desc>Created with Sketch.</desc>
    <defs></defs>
    <g id="Page-1" stroke="none" stroke-width="1" fill="none" fill-rule="evenodd">
        <g id="Desktop-HD" transform="translate(-52.000000, -44.000000)">
            <g id="Group" transform="translate(52.000000, 45.000000)">
                <polygon id="E" fill="#000000" points="26.6163239 42.3808594 25.7892031 47 0 47 7.52892031 4 33 4 32.1728792 8.61914063 11.8766067 8.61914063 9.31041131 23.1484375 27.5070694 23.1484375 26.7011568 27.7675781 8.52570694 27.7675781 5.95951157 42.3808594"></polygon>
                <circle id="Oval-Copy-3" stroke="#000000" cx="31.5" cy="6.5" r="6.5"></circle>
                <circle id="Oval-Copy-5" stroke="#000000" cx="25.5" cy="46.5" r="6.5"></circle>
                <polygon id="N" fill="#000000" points="81 4 73.4815206 47 68.7085533 47 52.5522703 13.3222656 52.1087645 13.3012695 46.1108765 47 41 47 48.4973601 4 53.2914467 4 69.4899683 37.8457031 69.9545935 37.8666992 75.9524815 4"></polygon>
                <circle id="Oval-Copy" stroke="#000000" cx="43.5" cy="46.5" r="6.5"></circle>
                <circle id="Oval-Copy-2" stroke="#000000" cx="78.5" cy="6.5" r="6.5"></circle>
            </g>
        </g>
    </g>
</svg>