
<svg width="41px" height="40px" viewBox="0 0 41 40" version="1.1" xmlns="http://www.w3.org/2000/svg" xmlns:xlink="http://www.w3.org/1999/xlink">
    <!-- Generator: Sketch 47.1 (45422) - http://www.bohemiancoding.com/sketch -->
    <desc>Created with Sketch.</desc>
    <defs></defs>
    <g id="Editors" stroke="none" stroke-width="1" fill="none" fill-rule="evenodd">
        <g id="Effect-Node-Editors" transform="translate(-142.000000, -116.000000)" fill-rule="nonzero" fill="#838383">
            <g id="File-Box" transform="translate(30.000000, 96.000000)">
                <g id="File-adder" transform="translate(18.000000, 17.000000)">
                    <g id="iconmonstr-plus-6" transform="translate(94.398496, 3.000000)">
                        <path d="M20.3007519,3.33333333 C29.6289474,3.33333333 37.2180451,10.81 37.2180451,20 C37.2180451,29.19 29.6289474,36.6666667 20.3007519,36.6666667 C10.9725564,36.6666667 3.38345865,29.19 3.38345865,20 C3.38345865,10.81 10.9725564,3.33333333 20.3007519,3.33333333 Z M20.3007519,0 C9.08966165,0 0,8.955 0,20 C0,31.045 9.08966165,40 20.3007519,40 C31.5118421,40 40.6015038,31.045 40.6015038,20 C40.6015038,8.955 31.5118421,0 20.3007519,0 Z M30.4511278,21.6666667 L21.9924812,21.6666667 L21.9924812,30 L18.6090226,30 L18.6090226,21.6666667 L10.1503759,21.6666667 L10.1503759,18.3333333 L18.6090226,18.3333333 L18.6090226,10 L21.9924812,10 L21.9924812,18.3333333 L30.4511278,18.3333333 L30.4511278,21.6666667 Z" id="Shape"></path>
                    </g>
                </g>
            </g>
        </g>
    </g>
</svg>