
<svg width="20px" height="15px" viewBox="0 0 20 15" version="1.1" xmlns="http://www.w3.org/2000/svg" xmlns:xlink="http://www.w3.org/1999/xlink">
    <!-- Generator: Sketch 47.1 (45422) - http://www.bohemiancoding.com/sketch -->
    <desc>Created with Sketch.</desc>
    <defs></defs>
    <g id="Editors" stroke="none" stroke-width="1" fill="none" fill-rule="evenodd">
        <g id="Effect-Node-Editors-@_@" transform="translate(-52.000000, -215.000000)" fill-rule="nonzero" fill="#000000">
            <g id="Scene-Inspector" transform="translate(29.000000, 156.000000)">
                <g id="Camera-Control" transform="translate(23.000000, 58.000000)">
                    <g id="iconmonstr-photo-camera-10" transform="translate(0.000000, 1.000000)">
                        <path d="M5.83333333,5.83333333 L2.43083333,5.83333333 L3.49,4.67 L4.16666667,5 L4.73,4.28166667 L5.83333333,5.83333333 Z M6.56666667,8.33333333 L0,8.33333333 L0,1.66666667 L7.67,1.66666667 C8.28583333,3.01 9.35666667,3.08 10.8333333,3.7575 L10.8333333,7.63083333 C9.46833333,7.47916667 7.5125,7.41416667 6.56666667,8.33333333 Z M6.66666667,3.33333333 L1.66666667,3.33333333 L1.66666667,6.66666667 L6.66666667,6.66666667 L6.66666667,3.33333333 Z M14.3083333,1.80583333 C13.6366667,0.835 10.1158333,0.2025 8.69,0 C8.54916667,0.605833333 8.7825,1.36916667 9.40583333,1.73 C10.0133333,2.08166667 11.7783333,2.62833333 12.3,3.14833333 C12.9766667,3.82166667 13.9883333,7.03833333 12.3233333,9.21666667 C10.5933333,8.72583333 8.79,8.7775 7.81083333,9.17666667 C6.85,9.56833333 6.96666667,10.7666667 7.96833333,10.8808333 C10.8183333,11.2058333 14.2908333,11.8483333 16.57,15 C16.57,15 18.0875,13.4291667 19.9991667,11.3116667 C16.9425,8.7675 16.5008333,4.97333333 14.3083333,1.80583333 Z M2.70833333,4.16666667 C2.59333333,4.16666667 2.5,4.26 2.5,4.375 C2.5,4.49 2.59333333,4.58333333 2.70833333,4.58333333 C2.82416667,4.58333333 2.91666667,4.49 2.91666667,4.375 C2.91666667,4.26 2.82416667,4.16666667 2.70833333,4.16666667 Z" id="Shape"></path>
                    </g>
                </g>
            </g>
        </g>
    </g>
</svg>