
<svg width="14px" height="15px" viewBox="0 0 14 15" version="1.1" xmlns="http://www.w3.org/2000/svg" xmlns:xlink="http://www.w3.org/1999/xlink">
    <!-- Generator: Sketch 47.1 (45422) - http://www.bohemiancoding.com/sketch -->
    <desc>Created with Sketch.</desc>
    <defs></defs>
    <g id="Editors" stroke="none" stroke-width="1" fill="none" fill-rule="evenodd">
        <g id="Effect-Node-Editors-@_@" transform="translate(-54.000000, -186.000000)" fill-rule="nonzero" fill="#000000">
            <g id="Scene-Inspector" transform="translate(29.000000, 156.000000)">
                <g id="camera" transform="translate(25.000000, 28.000000)">
                    <g id="iconmonstr-video-camera-11" transform="translate(0.000000, 2.000000)">
                        <path d="M14,3.749375 L14,9.999375 L10.1818182,8.124375 L10.1818182,5.624375 L14,3.749375 Z M10.1818182,2.1875 C10.1818182,3.395625 9.18463636,4.375 7.95454545,4.375 C6.72445455,4.375 5.72727273,3.395625 5.72727273,2.1875 C5.72727273,0.979375 6.72445455,0 7.95454545,0 C9.18463636,0 10.1818182,0.979375 10.1818182,2.1875 Z M2.22727273,-4.4408921e-16 C0.997181818,-4.4408921e-16 0,0.979375 0,2.1875 C0,3.395625 0.997181818,4.375 2.22727273,4.375 C3.45736364,4.375 4.45454545,3.395625 4.45454545,2.1875 C4.45454545,0.979375 3.45736364,-1.66533454e-16 2.22727273,-4.4408921e-16 Z M7.95454545,5.625 C6.77218182,5.625 5.72472727,5.04625 5.09090909,4.161875 C4.45709091,5.04625 3.40963636,5.625 2.22727273,5.625 C1.89572727,5.625 1.57690909,5.57625 1.27272727,5.491875 L1.27272727,8.4375 C1.27272727,8.955625 1.70036364,9.375 2.22727273,9.375 L7.95454545,9.375 C8.48145455,9.375 8.90909091,8.955625 8.90909091,8.4375 L8.90909091,5.491875 C8.60490909,5.57625 8.28609091,5.625 7.95454545,5.625 L7.95454545,5.625 Z M5.971,10.625 L4.21081818,10.625 L0.654818182,14.11625 L1.55463636,15 L4.45454545,12.1525 L4.45454545,14.998125 L5.72727273,14.998125 L5.72727273,12.1525 L8.62718182,15 L9.527,14.11625 L5.971,10.625 Z" id="Shape"></path>
                    </g>
                </g>
            </g>
        </g>
    </g>
</svg>