<svg width="15px" height="15px" viewBox="0 0 15 15" version="1.1" xmlns="http://www.w3.org/2000/svg" xmlns:xlink="http://www.w3.org/1999/xlink">
    <!-- Generator: Sketch 47.1 (45422) - http://www.bohemiancoding.com/sketch -->
    <desc>Created with Sketch.</desc>
    <defs></defs>
    <g id="Editors" stroke="none" stroke-width="1" fill="none" fill-rule="evenodd">
        <g id="Effect-Node-Editors-@_@" transform="translate(-77.000000, -324.000000)" fill-rule="nonzero" fill="#000000">
            <g id="Scene-Inspector" transform="translate(29.000000, 156.000000)">
                <g id="3d-item" transform="translate(48.000000, 166.000000)">
                    <g id="iconmonstr-cube-17" transform="translate(0.000000, 2.000000)">
                        <path d="M11.25,6.269375 L11.25,2.255 L7.4775,4.4408921e-16 L3.75,2.230625 L3.75,6.2925 L0,8.3075 L0,12.8175 L3.835,15 L7.5,12.879375 L11.165,15 L15,12.8175 L15,8.331875 L11.25,6.269375 Z M10.535625,6.291875 L7.835,7.781875 L7.835,4.684375 L10.535625,3.0975 L10.535625,6.291875 Z M7.47625,0.848125 L10.14625,2.470625 L7.47875,4.03875 L4.86875,2.4425 L7.47625,0.848125 Z M7.120625,4.681875 L7.120625,7.781875 L4.464375,6.26875 L4.464375,3.06 L7.120625,4.681875 L7.120625,4.681875 Z M3.476875,13.958125 L0.71375,12.37125 L0.71375,9.13625 L3.476875,10.758125 L3.476875,13.958125 Z M1.11875,8.519375 L4.105,6.938125 L6.753125,8.44875 L3.835625,10.115625 L1.11875,8.519375 Z M4.191875,10.76125 L7.143125,9.075625 L7.143125,12.235625 L4.191875,13.95875 L4.191875,10.76125 L4.191875,10.76125 Z M10.808125,13.958125 L7.856875,12.235 L7.856875,9.0375 L10.808125,10.75875 L10.808125,13.958125 Z M8.261875,8.42 L10.91625,6.92625 L13.896875,8.5475 L11.1675,10.115625 L8.261875,8.42 L8.261875,8.42 Z M14.285625,12.371875 L11.5225,13.95875 L11.5225,10.76125 L14.285625,9.175 L14.285625,12.371875 L14.285625,12.371875 Z" id="Shape"></path>
                    </g>
                </g>
            </g>
        </g>
    </g>
</svg>