<svg width="20px" height="15px" viewBox="0 0 20 15" version="1.1" xmlns="http://www.w3.org/2000/svg" xmlns:xlink="http://www.w3.org/1999/xlink">
    <!-- Generator: Sketch 47.1 (45422) - http://www.bohemiancoding.com/sketch -->
    <desc>Created with Sketch.</desc>
    <defs></defs>
    <g id="Editors" stroke="none" stroke-width="1" fill="none" fill-rule="evenodd">
        <g id="Desktop-HD" transform="translate(-603.000000, -313.000000)" fill-rule="nonzero" fill="#000000">
            <g id="iconmonstr-picture-1-(1)" transform="translate(603.000000, 313.000000)">
                <path d="M4.16666667,4.58333333 C4.16666667,3.89333333 4.72666667,3.33333333 5.41666667,3.33333333 C6.10666667,3.33333333 6.66666667,3.89333333 6.66666667,4.58333333 C6.66666667,5.27416667 6.10666667,5.83333333 5.41666667,5.83333333 C4.72666667,5.83333333 4.16666667,5.27416667 4.16666667,4.58333333 Z M11.6666667,5 L9.5675,8.33333333 L7.5,6.7 L4.16666667,11.6666667 L15.8333333,11.6666667 L11.6666667,5 Z M18.3333333,1.66666667 L18.3333333,13.3333333 L1.66666667,13.3333333 L1.66666667,1.66666667 L18.3333333,1.66666667 Z M20,0 L0,0 L0,15 L20,15 L20,0 Z" id="Shape"></path>
            </g>
        </g>
    </g>
</svg>