<svg width="19px" height="13px" viewBox="0 0 19 13" version="1.1" xmlns="http://www.w3.org/2000/svg" xmlns:xlink="http://www.w3.org/1999/xlink">
    <!-- Generator: Sketch 47.1 (45422) - http://www.bohemiancoding.com/sketch -->
    <desc>Created with Sketch.</desc>
    <defs></defs>
    <g id="Editors" stroke="none" stroke-width="1" fill="none" fill-rule="evenodd">
        <g id="Effect-Node-Editors-@_@" transform="translate(-77.000000, -272.000000)" fill-rule="nonzero" fill="#000000">
            <g id="Scene-Inspector" transform="translate(29.000000, 156.000000)">
                <g id="font" transform="translate(48.000000, 116.000000)">
                    <g id="iconmonstr-text-3">
                        <path d="M19,12.2777778 L19,13 L15.8333333,13 L15.8333333,12.2777778 L16.494375,12.2777778 C16.698625,12.2777778 16.815,12.1492222 16.7485,11.973 L16.3740417,10.9828333 L14.6078333,10.9828333 L14.152625,9.8345 L15.9695,9.8345 L14.89125,6.89 L13.9776667,9.38238889 L13.2817917,7.57827778 L14.0109167,5.77777778 L15.77,5.77777778 L18.171125,11.9282222 C18.259,12.1557222 18.3642917,12.2777778 18.6287083,12.2777778 L19,12.2777778 L19,12.2777778 Z M14.25,11.5555556 L15.0416667,11.5555556 L15.0416667,13 L9.5,13 L9.5,11.5555556 L9.92116667,11.5555556 C10.2845417,11.5555556 10.54025,11.2283889 10.4222917,10.9149444 L9.77629167,9.38888889 L4.842625,9.38888889 L4.19741667,10.9149444 C4.07945833,11.2283889 4.33516667,11.5555556 4.69854167,11.5555556 L5.54166667,11.5555556 L5.54166667,13 L-1.77635684e-15,13 L-1.77635684e-15,11.5555556 L0.340416667,11.5555556 C0.809875,11.5555556 1.22945833,11.2847222 1.38541667,10.8802778 L5.745125,1.77635684e-15 L8.87379167,1.77635684e-15 L13.2335,10.8802778 C13.3894583,11.2847222 13.77975,11.5555556 14.25,11.5555556 Z M5.63191667,7.22222222 L8.987,7.22222222 L7.198625,2.74516667 L5.63191667,7.22222222 Z" id="Shape"></path>
                    </g>
                </g>
            </g>
        </g>
    </g>
</svg>