
<svg width="15px" height="15px" viewBox="0 0 15 15" version="1.1" xmlns="http://www.w3.org/2000/svg" xmlns:xlink="http://www.w3.org/1999/xlink">
    <!-- Generator: Sketch 47.1 (45422) - http://www.bohemiancoding.com/sketch -->
    <desc>Created with Sketch.</desc>
    <defs></defs>
    <g id="Editors" stroke="none" stroke-width="1" fill="none" fill-rule="evenodd">
        <g id="Desktop-HD" transform="translate(-705.000000, -290.000000)" fill-rule="nonzero" fill="#000000">
            <g id="iconmonstr-connection-6" transform="translate(705.000000, 290.000000)">
                <path d="M7.5,1.25 C10.94625,1.25 13.75,4.05375 13.75,7.5 C13.75,10.94625 10.94625,13.75 7.5,13.75 C4.05375,13.75 1.25,10.94625 1.25,7.5 C1.25,4.05375 4.05375,1.25 7.5,1.25 Z M7.5,0 C3.358125,0 0,3.358125 0,7.5 C0,11.641875 3.358125,15 7.5,15 C11.641875,15 15,11.641875 15,7.5 C15,3.358125 11.641875,0 7.5,0 Z M6.25,11.875 L7.1875,8.75 L4.375,8.75 L8.75,3.125 L7.8125,6.25 L10.625,6.25 L6.25,11.875 Z" id="Shape"></path>
            </g>
        </g>
    </g>
</svg>