
<svg width="13px" height="15px" viewBox="0 0 13 15" version="1.1" xmlns="http://www.w3.org/2000/svg" xmlns:xlink="http://www.w3.org/1999/xlink">
    <!-- Generator: Sketch 47.1 (45422) - http://www.bohemiancoding.com/sketch -->
    <desc>Created with Sketch.</desc>
    <defs></defs>
    <g id="Editors" stroke="none" stroke-width="1" fill="none" fill-rule="evenodd">
        <g id="Desktop-HD" transform="translate(-672.000000, -313.000000)" fill-rule="nonzero" fill="#000000">
            <g id="iconmonstr-trash-can-2" transform="translate(672.000000, 313.000000)">
                <path d="M4.375,11.875 C4.375,12.22 4.095,12.5 3.75,12.5 C3.405,12.5 3.125,12.22 3.125,11.875 L3.125,5.625 C3.125,5.28 3.405,5 3.75,5 C4.095,5 4.375,5.28 4.375,5.625 L4.375,11.875 Z M6.875,11.875 C6.875,12.22 6.595,12.5 6.25,12.5 C5.905,12.5 5.625,12.22 5.625,11.875 L5.625,5.625 C5.625,5.28 5.905,5 6.25,5 C6.595,5 6.875,5.28 6.875,5.625 L6.875,11.875 Z M9.375,11.875 C9.375,12.22 9.095,12.5 8.75,12.5 C8.405,12.5 8.125,12.22 8.125,11.875 L8.125,5.625 C8.125,5.28 8.405,5 8.75,5 C9.095,5 9.375,5.28 9.375,5.625 L9.375,11.875 Z M12.5,1.25 L12.5,2.5 L0,2.5 L0,1.25 L3.569375,1.25 C4.131875,1.25 4.58875,0.563125 4.58875,0 L7.910625,0 C7.910625,0.563125 8.366875,1.25 8.93,1.25 L12.5,1.25 Z M10.625,3.75 L10.625,13.75 L1.875,13.75 L1.875,3.75 L0.625,3.75 L0.625,15 L11.875,15 L11.875,3.75 L10.625,3.75 Z" id="Shape"></path>
            </g>
        </g>
    </g>
</svg>