<svg width="17px" height="15px" viewBox="0 0 17 15" version="1.1" xmlns="http://www.w3.org/2000/svg" xmlns:xlink="http://www.w3.org/1999/xlink">
    <!-- Generator: Sketch 47.1 (45422) - http://www.bohemiancoding.com/sketch -->
    <desc>Created with Sketch.</desc>
    <defs></defs>
    <g id="Editors" stroke="none" stroke-width="1" fill="none" fill-rule="evenodd">
        <g id="Desktop-HD" transform="translate(-688.000000, -247.000000)" fill-rule="nonzero" fill="#000000">
            <g id="iconmonstr-code-4" transform="translate(688.000000, 247.000000)">
                <path d="M16.5,6.6195 L16.5,8.38125 C15.3285,8.38125 14.25,9.36525 14.25,10.524 C14.25,12.15975 15.21075,15 9.75,15 L9.75,13.4985 C13.43775,13.4985 12.7245,12.2985 12.7245,10.52325 C12.7245,8.95275 13.63275,7.89825 14.433,7.5 C13.63275,7.10175 12.7245,6.4215 12.7245,5.016 C12.7245,3.237 13.4295,1.497 9.75,1.5015 L9.75,4.4408921e-15 C15.21375,4.4408921e-15 14.25,3.3795 14.25,5.016 C14.25,6.174 15.3285,6.6195 16.5,6.6195 Z M2.25,5.016 C2.25,3.3795 1.28625,8.8817842e-16 6.75,8.8817842e-16 L6.75,1.5015 C3.0705,1.49625 3.7755,3.23625 3.7755,5.016 C3.7755,6.42225 2.86725,7.10175 2.067,7.5 C2.86725,7.89825 3.7755,8.9535 3.7755,10.52325 C3.7755,12.2985 3.06225,13.4985 6.75,13.4985 L6.75,15 C1.28925,15 2.25,12.15975 2.25,10.52325 C2.25,9.3645 1.1715,8.3805 0,8.3805 L0,6.61875 C1.1715,6.6195 2.25,6.174 2.25,5.016 L2.25,5.016 Z" id="Shape"></path>
            </g>
        </g>
    </g>
</svg>