
<svg width="20px" height="15px" viewBox="0 0 20 15" version="1.1" xmlns="http://www.w3.org/2000/svg" xmlns:xlink="http://www.w3.org/1999/xlink">
    <!-- Generator: Sketch 47.1 (45422) - http://www.bohemiancoding.com/sketch -->
    <desc>Created with Sketch.</desc>
    <defs></defs>
    <g id="Editors" stroke="none" stroke-width="1" fill="none" fill-rule="evenodd">
        <g id="Desktop-HD" transform="translate(-648.000000, -247.000000)" fill-rule="nonzero" fill="#000000">
            <g id="iconmonstr-code-14" transform="translate(648.000000, 247.000000)">
                <path d="M16.2325,5.91 C16.0558333,2.6175 13.3383333,8.8817842e-16 10,8.8817842e-16 C6.66166667,8.8817842e-16 3.94416667,2.6175 3.7675,5.91 C1.62583333,6.29583333 0,8.165 0,10.4166667 C0,12.9475 2.0525,15 4.58333333,15 L15.4166667,15 C17.9475,15 20,12.9475 20,10.4166667 C20,8.165 18.3741667,6.29583333 16.2325,5.91 Z M9.16666667,8.80583333 L7.30916667,9.58333333 L9.16666667,10.3583333 L9.16666667,11.6666667 L5.83333333,10.2491667 L5.83333333,8.91666667 L9.16666667,7.5 L9.16666667,8.80583333 Z M14.1666667,10.2491667 L10.8333333,11.6666667 L10.8333333,10.3583333 L12.6908333,9.58333333 L10.8333333,8.80583333 L10.8333333,7.5 L14.1666667,8.9175 L14.1666667,10.2491667 Z" id="Shape"></path>
            </g>
        </g>
    </g>
</svg>