
<svg width="15px" height="15px" viewBox="0 0 15 15" version="1.1" xmlns="http://www.w3.org/2000/svg" xmlns:xlink="http://www.w3.org/1999/xlink">
    <!-- Generator: Sketch 49.3 (51167) - http://www.bohemiancoding.com/sketch -->
    <desc>Created with Sketch.</desc>
    <defs></defs>
    <g id="Editors" stroke="none" stroke-width="1" fill="none" fill-rule="evenodd">
        <g id="Desktop-HD" transform="translate(-777.000000, -316.000000)" fill="#000000">
            <g id="iconmonstr-connection-7" transform="translate(777.000000, 316.000000)">
                <path d="M7.5,0 C11.639375,0 15,3.360625 15,7.5 C15,11.639375 11.639375,15 7.5,15 C3.360625,15 0,11.639375 0,7.5 C0,3.360625 3.360625,0 7.5,0 Z M8.803125,8.75 L3.178125,8.75 L3.178125,10 L8.803125,10 L8.803125,11.875 L11.928125,9.375 L8.803125,6.875 L8.803125,8.75 Z M6.303125,5 L6.303125,3.125 L3.178125,5.625 L6.303125,8.125 L6.303125,6.25 L11.928125,6.25 L11.928125,5 L6.303125,5 Z" id="Shape"></path>
            </g>
        </g>
    </g>
</svg>