
<svg width="20px" height="15px" viewBox="0 0 20 15" version="1.1" xmlns="http://www.w3.org/2000/svg" xmlns:xlink="http://www.w3.org/1999/xlink">
    <!-- Generator: Sketch 47.1 (45422) - http://www.bohemiancoding.com/sketch -->
    <desc>Created with Sketch.</desc>
    <defs></defs>
    <g id="Editors" stroke="none" stroke-width="1" fill="none" fill-rule="evenodd">
        <g id="Desktop-HD" transform="translate(-694.000000, -195.000000)" fill-rule="nonzero" fill="#000000">
            <g id="iconmonstr-download-16" transform="translate(694.000000, 195.000000)">
                <path d="M10,1.66666667 C12.8775,1.66666667 14.9091667,3.9975 14.6391667,7.31666667 C16.0933333,7.27833333 18.3333333,7.9425 18.3333333,10.4166667 C18.3333333,12.025 17.025,13.3333333 15.4166667,13.3333333 L4.58333333,13.3333333 C2.975,13.3333333 1.66666667,12.025 1.66666667,10.4166667 C1.66666667,8.08583333 3.7325,7.2225 5.36083333,7.31666667 C5.22166667,3.80166667 7.20083333,1.66666667 10,1.66666667 Z M10,-1.48029737e-16 C6.66166667,-1.48029737e-16 3.94416667,2.6175 3.7675,5.91 C1.62583333,6.29583333 0,8.165 0,10.4166667 C0,12.9475 2.0525,15 4.58333333,15 L15.4166667,15 C17.9475,15 20,12.9475 20,10.4166667 C20,8.165 18.3741667,6.29583333 16.2325,5.91 C16.0558333,2.6175 13.3383333,-8.8817842e-16 10,-1.48029737e-16 Z M6.66666667,8.33333333 L9.16666667,8.33333333 L9.16666667,5 L10.8333333,5 L10.8333333,8.33333333 L13.3333333,8.33333333 L10,11.6666667 L6.66666667,8.33333333 Z" id="Shape"></path>
            </g>
        </g>
    </g>
</svg>