
<svg width="18px" height="15px" viewBox="0 0 18 15" version="1.1" xmlns="http://www.w3.org/2000/svg" xmlns:xlink="http://www.w3.org/1999/xlink">
    <!-- Generator: Sketch 49.3 (51167) - http://www.bohemiancoding.com/sketch -->
    <desc>Created with Sketch.</desc>
    <defs></defs>
    <g id="Editors" stroke="none" stroke-width="1" fill="none" fill-rule="evenodd">
        <g id="Desktop-HD" transform="translate(-563.000000, -404.000000)" fill="#000000" fill-rule="nonzero">
            <g id="iconmonstr-folder-5" transform="translate(563.000000, 404.000000)">
                <path d="M18,11.25 L15.75,11.25 L15.75,9 L14.25,9 L14.25,11.25 L12,11.25 L12,12.75 L14.25,12.75 L14.25,15 L15.75,15 L15.75,12.75 L18,12.75 L18,11.25 Z M10.5,15 L0,15 L0,0 L5.25,0 C6.52125,1.4565 7.02825,2.25 8.25,2.25 L18,2.25 L18,7.5 L16.5,7.5 L16.5,3.75 L8.25,3.75 C6.495,3.75 5.59725,2.709 4.563,1.5 L1.5,1.5 L1.5,13.5 L10.5,13.5 L10.5,15 Z" id="Shape"></path>
            </g>
        </g>
    </g>
</svg>