
<svg width="17px" height="15px" viewBox="0 0 17 15" version="1.1" xmlns="http://www.w3.org/2000/svg" xmlns:xlink="http://www.w3.org/1999/xlink">
    <!-- Generator: Sketch 47.1 (45422) - http://www.bohemiancoding.com/sketch -->
    <desc>Created with Sketch.</desc>
    <defs></defs>
    <g id="Editors" stroke="none" stroke-width="1" fill="none" fill-rule="evenodd">
        <g id="Desktop-HD" transform="translate(-685.000000, -245.000000)" fill-rule="nonzero" fill="#000000">
            <g id="iconmonstr-danger-3" transform="translate(685.000000, 245.000000)">
                <path d="M8.18181818,8.80431818 C9.21886364,8.80431818 10.0588636,7.97931818 10.0588636,6.96204545 C10.0588636,5.94545455 9.21886364,5.12045455 8.18181818,5.12045455 C7.14477273,5.12045455 6.30477273,5.94545455 6.30477273,6.96204545 C6.30477273,7.97931818 7.14477273,8.80431818 8.18181818,8.80431818 Z M9.90340909,4.035 L12.2788636,0 C14.6863636,1.36704545 16.3111364,3.90477273 16.3636364,6.81818182 L11.5765909,6.81818182 C11.5254545,5.62840909 10.8688636,4.605 9.90340909,4.035 Z M9.90340909,9.88909091 L12.2781818,13.9240909 C11.0734091,14.6086364 9.67363636,15 8.18181818,15 C6.69,15 5.29022727,14.6086364 4.08545455,13.9240909 L6.45954545,9.88909091 C6.96681818,10.1877273 7.55045455,10.3718182 8.18181818,10.3718182 C8.81318182,10.3718182 9.39681818,10.1884091 9.90340909,9.88909091 L9.90340909,9.88909091 Z M4.78704545,6.81818182 L8.8817842e-16,6.81818182 C0.0525,3.90477273 1.67727273,1.36704545 4.08545455,1.77635684e-15 L6.46022727,4.03568182 C5.49409091,4.605 4.83818182,5.62840909 4.78704545,6.81818182 Z" id="Shape"></path>
            </g>
        </g>
    </g>
</svg>