
<svg width="13px" height="13px" viewBox="0 0 13 13" version="1.1" xmlns="http://www.w3.org/2000/svg" xmlns:xlink="http://www.w3.org/1999/xlink">
    <!-- Generator: Sketch 47.1 (45422) - http://www.bohemiancoding.com/sketch -->
    <desc>Created with Sketch.</desc>
    <defs></defs>
    <g id="Editors" stroke="none" stroke-width="1" fill="none" fill-rule="evenodd">
        <g id="Effect-Node-Editors-@_@" transform="translate(-1122.000000, -8.000000)" fill-rule="nonzero" fill="#000000">
            <g id="MenuBar">
                <g id="Right" transform="translate(943.000000, 7.000000)">
                    <g id="Group-2" transform="translate(179.000000, 0.000000)">
                        <g id="iconmonstr-time-5-(1)" transform="translate(0.000000, 1.000000)">
                            <path d="M5.95833333,3.25 L5.95833333,7.58333333 L9.75,7.58333333 L9.75,6.5 L7.04166667,6.5 L7.04166667,3.25 L5.95833333,3.25 Z M1.40833333,8.34004167 L0.433875,8.83079167 C0.270291667,8.406125 0.151666667,7.96033333 0.0807083333,7.49829167 L1.16295833,7.41216667 C1.217125,7.73175 1.3,8.04158333 1.40833333,8.34004167 L1.40833333,8.34004167 Z M3.787875,12.4030833 L4.15025,11.3744583 C3.852875,11.2309167 3.57175,11.0619167 3.30795833,10.8690833 L2.54258333,11.6507083 C2.92608333,11.9459167 3.34316667,12.198875 3.787875,12.4030833 L3.787875,12.4030833 Z M0.90675,9.80579167 C1.14508333,10.2071667 1.42458333,10.580375 1.740375,10.9205417 L2.500875,10.1443333 C2.26741667,9.88920833 2.05995833,9.61241667 1.8785,9.31666667 L0.90675,9.80579167 Z M6.49783333,-1.6283271e-15 C4.98658333,-1.6283271e-15 3.60045833,0.522166667 2.497625,1.38775 L1.31516667,0.205291667 L0.580666667,4.004 L4.38045833,3.27058333 L3.27004167,2.16070833 C4.17245833,1.48633333 5.28720833,1.08333333 6.49783333,1.08333333 C9.48566667,1.08333333 11.916125,3.51325 11.916125,6.5 C11.916125,9.48675 9.48566667,11.9166667 6.49783333,11.9166667 C6.0385,11.9166667 5.59433333,11.85275 5.16804167,11.7449583 L4.80783333,12.770875 C5.34733333,12.9155 5.91229167,13 6.49783333,13 C10.0885417,13 13,10.089625 13,6.5 C13,2.910375 10.0885417,-3.55271368e-15 6.49783333,-1.6283271e-15 Z M-1.83996337e-15,6.41820833 L1.09145833,6.331 C1.10608333,5.95020833 1.15916667,5.58025 1.24745833,5.22220833 L0.122958333,5.22220833 C0.0460416667,5.60895833 0.00541666667,6.00925 -1.83996337e-15,6.41820833 Z" id="Shape"></path>
                        </g>
                    </g>
                </g>
            </g>
        </g>
    </g>
</svg>