
<svg width="14px" height="15px" viewBox="0 0 14 15" version="1.1" xmlns="http://www.w3.org/2000/svg" xmlns:xlink="http://www.w3.org/1999/xlink">
    <!-- Generator: Sketch 49.3 (51167) - http://www.bohemiancoding.com/sketch -->
    <desc>Created with Sketch.</desc>
    <defs></defs>
    <g id="Editors" stroke="none" stroke-width="1" fill="none" fill-rule="evenodd">
        <g id="Desktop-HD" transform="translate(-556.000000, -210.000000)" fill="#000000" fill-rule="nonzero">
            <g id="iconmonstr-zip-15" transform="translate(556.000000, 210.000000)">
                <path d="M6.875,-3.33066907e-16 L0,3.75 L0,11.331875 L6.875,15 L13.75,11.331875 L13.75,3.790625 L6.875,-3.33066907e-16 Z M6.25,13.25 L1.25,10.5825 L1.25,5.14375 L6.25,7.870625 L6.25,13.25 Z M12.5,10.5825 L7.5,13.25 L7.5,7.129375 L1.958125,4.10625 L6.871875,1.425625 L12.5,4.53125 L12.5,10.5825 Z M9.745,7.87125 L10.77,7.298125 L10.76625,7.6875 L9.74125,8.26125 L9.745,7.87125 Z M10.778125,6.518125 L9.7525,7.0925 L9.74875,7.4825 L10.774375,6.90875 L10.778125,6.518125 Z M10.778125,5.774375 L9.7525,6.34875 L9.74875,6.73875 L10.774375,6.165 L10.778125,5.774375 Z M8.43625,5.28625 L9.464375,4.68625 L9.14,4.515625 L8.11125,5.115 L8.43625,5.28625 Z M11.06625,9.2425 L10.7625,8.076875 L9.736875,8.65125 L9.41,10.170625 C9.266875,10.86125 9.67375,10.989375 10.229375,10.678125 C10.783125,10.3675 11.196875,9.78 11.06625,9.2425 Z M10.231875,10.295 C9.975,10.43875 9.71875,10.45875 9.72125,10.21 C9.724375,9.95375 9.985,9.6775 10.243125,9.533125 C10.4975,9.390625 10.749375,9.376875 10.746875,9.63625 C10.74375,9.885 10.4875,10.151875 10.231875,10.295 Z M7.51375,3.654375 L7.189375,3.483125 L6.160625,4.083125 L6.485625,4.254375 L7.51375,3.654375 Z M6.539375,3.138125 L5.510625,3.738125 L5.8375,3.91125 L6.86625,3.31125 L6.539375,3.138125 Z M7.784375,4.94125 L8.811875,4.3425 L8.49,4.17125 L7.460625,4.77 L7.784375,4.94125 Z M9.66,6.03125 L10.68875,5.43125 L10.36375,5.260625 L9.335625,5.86 L9.66,6.03125 Z M5.891875,2.795625 L4.86375,3.395625 L5.18625,3.566875 L6.215625,2.9675 L5.891875,2.795625 Z M7.136875,4.599375 L8.165625,3.999375 L7.840625,3.828125 L6.8125,4.4275 L7.136875,4.599375 Z M9.048125,5.655 L10.076875,5.055625 L9.753125,4.884375 L8.724375,5.484375 L9.048125,5.655 Z" id="Shape"></path>
            </g>
        </g>
    </g>
</svg>